<?xml version="1.0" encoding="UTF-8"?>
<svg id="Layer_2" data-name="Layer 2" xmlns="http://www.w3.org/2000/svg" viewBox="0 0 254.111 254.111">
  <defs>
    <style>
      .cls-1 {
        fill: #fff;
      }
    </style>
  </defs>
  <g id="Layer_1-2" data-name="Layer 1">
    <path class="cls-1" d="M0,0v254.111h254.111V0H0ZM80.493,116.481s0-23.114-.002-23.292c0-3.508-2.844-6.355-6.354-6.355s-6.374,2.845-6.374,6.355v23.294h-16.919l-.022-65.645h16.941v19.937c2.017-.569,4.176-.881,6.374-.881,12.862,0,23.294,10.43,23.294,23.295,0,.178.005,23.292.005,23.292h-16.943ZM203.311,167.305c0,12.862-5.212,24.509-13.646,32.94l-23.956-23.959c2.298-2.3,3.722-5.475,3.722-8.981,0-7.018-5.689-12.706-12.707-12.706h-12.704v-33.881h12.704c7.018,0,12.707-5.688,12.707-12.706s-5.689-12.705-12.707-12.705-12.704,5.688-12.704,12.705h-.001v8.47h-33.882v-8.47c0-25.728,20.859-46.583,46.586-46.583s46.588,20.855,46.588,46.583c0,11.263-3.995,21.594-10.647,29.645,6.652,8.057,10.647,18.383,10.647,29.648ZM202.934,66.565h-1.248v4.463c0,.257-.198.457-.454.457s-.461-.2-.461-.457v-4.463h-1.249c-.243,0-.443-.207-.443-.45,0-.256.2-.453.443-.453h3.412c.244,0,.443.197.442.453,0,.243-.198.45-.442.45ZM208.6,71.053c0,.244-.187.434-.429.434-.239,0-.427-.192-.427-.434v-3.319l-1.128,2.392c-.095.179-.246.271-.423.271-.169,0-.337-.091-.404-.271l-1.134-2.382v3.322c0,.231-.199.421-.438.421-.23,0-.428-.192-.428-.421v-4.976c0-.254.2-.428.438-.428.231,0,.365.084.461.278l1.518,3.14,1.539-3.168c.079-.205.257-.25.418-.25.251,0,.437.193.437.428v4.963Z"/>
  </g>
</svg>