<?xml version="1.0" encoding="UTF-8"?>
<svg id="Layer_2" data-name="Layer 2" xmlns="http://www.w3.org/2000/svg" viewBox="0 0 168.285 181.489">
  <defs>
    <style>
      .cls-1 {
        fill: #fff;
      }
    </style>
  </defs>
  <g id="Layer_1-2" data-name="Layer 1">
    <path class="cls-1" d="M103.822,64.49l8.961-.708,3.68-.682,12.562,7.413,9.017,1.117c2.328-3.309,8.726-1.827,8.419-3.33l-.579-2.84c-.104-.51-1.254-.002-2.366.347l-11.112-12.439-12.203-.541,6.609-8.781c2.89-3.84,5.811-7.277,6.535-12.373.678-4.771,1.454-9.145,3.491-13.695-7.065-2.429-9.374,5.265-15.905,3.385l-5.742,4.619c-1.956,1.573-3.683,2.538-6.242,2.651l-8.765,9.261c-.118-.09,1.262.367.975.909l-2.115,3.993c-1.981-9.343-6.367-8.088-8.043-15.267l-1.902-8.147c-4.283,4.804-5.195,11.374-2.934,17.246l2.618,7.379-1.68,11.006-2.957,11.237,5.038,2.72,7.681-6.131,1.6-.853,5.361,2.504ZM135.336,68.23c-8.188-2.08-8.026-5.684-17.027-4.775l.191-2.158c-.458-5.827,6.728.959,15.952,2.216l.884,4.717ZM104.701,63.782c.315-2.075,4.682-4.704,6.701-4.113,1.336.391,2.216.855,2.83.815l3.703-.237-3.761,2.593-3.95.943h-5.522ZM128.108,55.006l3.7.461c.832.104.961,1.434,1.34,2.786l1.129,1.861c1.632,2.688-11.056-4.703-19.723-1.987,2.513-4.756,9.148-3.669,13.554-3.12ZM114.873,30.138l2.122-4.806c2.838-1.259,4.919-1.677,7.285-1.872l10.398-5.014-3.864,15.176c-1.236,4.855-3.008,9.123-8.694,10.534.7,1.108,1.621,2.453,1.263,2.864l-1.436,1.651c-2.441,2.806-4.497,4.894-8.146,6.815l1.111-9.861-2.769.677c-.356.087-.219-1.106-.114-1.126l4.683-4.859,11.645-3.362-8.737.352,8.522-8.831-.374-1.129-3.387,2.13,1.581-4.989c-5.027,2.256-.875,5.056-6.409,10.747l-6.9,7.095c-.563-5.049-.249-8.744,2.219-12.191ZM105.717,34.611c1.525-1.925,2.978-4.99,6.714-3.298l-2.408,7.113c1.432,2.943,1.354,7.12-2.554,9.035l-6.332,3.104c-2.52-7.015.845-11.237,4.581-15.954ZM102.396,53.513c1.917-3.753,6.288-4.527,10.713-5.473-.189,2.987-.644,6.842-1.631,9.545l-7.207,3.231,4.607-9.128-8.241,10.298c-1.746-1.821-1.853-2.545-1.217-5.771l2.976-2.702ZM87.592,23.973l4.701,12.623,2.012-1.038c.387-.2.816,1.041.915,1.521l1.947,9.408c-1.993-.661,1.279.43,2.072.695.117,4.743-6.697,13.739-10.139,17.709-1.501-5.982,4.81-15.279,2.43-19.74-3.581-6.713-6.402-13.701-3.938-21.177Z"/>
    <path class="cls-1" d="M95.351,80.147l-2.342-1.807,3.382-9.913c-1.67.125-3.145.214-2.987.564l.867,1.924c-.444.648-1.356,1.788-1.884,1.391-.528-.396-1.969-3.025-1.454-3.436l7.562-6.031c1.804,10.039-1.348,18.693-3.144,17.308ZM134.61,78.145c-5.193-.382-10.533-1.298-13.339,4.442l-12.795-3.536c.054.67.21,3.555-.803,3.745l-3.731.697-10.208,1.903,5.419-5.8c5.826-6.236,15.823-7.478,23.169-4.907-6.222-6.79-15.025-.566-21.481-.17l-.303-8.752,7.21-.073,8.175-2.236c.337-.092,1.543,2.609,1.701,2.914.419.806.295-.104,1.055-1.791l6.206,4.133c3.15,2.098,6.734,6.207,9.723,9.433ZM113.2,83.612l8.725,1.184c-.184,3.264-3.008,5.504-6.189,5.832l-13.707,1.412,2.153-2.43c2.083-3.036,5.763-6.44,9.018-5.998ZM155.912,95.927c-.436-.097-3.559-1.092-4.848-1.036l-12.983.564,4.166-5.391c2.656-3.437,5.429-6.178,9.142-9.354-11.321,2.824-11.574,18.942-23.236,12.532l-6.421-3.53c1.024-2.765,3.369-7.949,6.093-8.827,2.138-.689,5.479-.564,8.481-.221l-.493-4.419,11.918-1.682c.328,2.012.305,3.124,1.089,2.971l4.812-.936,2.281,19.329ZM126.586,96.451c1.44-.596,5.317-.698,6.856.328l10.325,6.884-3.175,1.87c7.954,2.937,15.332,11.393,10.939,17.696l-4.455-4.859-5.897-4.787c-8.45-2.244-16.487-4.855-22.179-12.172l-16.037-6.403,13.042-2.792c.17.95.251,2.179.657,1.968l2.502-1.301c1.085-.565,4.709-1.119,5.323-.058l2.098,3.626ZM155.72,124.846c-.164-2.926.413-5.808,1.096-8.35l-7.552-6.969c-1.256-1.159-2.754-4.359-3.286-6.181l-7.673-6.369,14.693-.147c2.964-.03,4.205,3.42,5.642,5.569l7.528,11.253c.807,2.556-5.533,6.543-7.593,5.482l-2.855,5.711ZM117.775,119.924c.028-.86.067-2.477-.552-2.856-.619-.379-3.047-.936-3.364-1.589l-5.175-10.66-9.494-4.624c-6.074.508-12.417,1.832-18.924,3.254,10.129-9.418,27.825-6.609,38.319,1.001,8.07,5.853,14.732,13.476,14.699,23.547l-8.419,12.945h1.527s8.853-12.586,8.853-12.586c4.37,15.531,1.167,22.255-1.53,36.425l3.047-7.117c.28-.654,2.869-1.178,2.853-1.08-1.042-2.79-1.138-5.853-.382-8.694l.869-6.942,6.188,10.979c-.615-5.014-3.136-10.181-6.898-14.519-1.875-8.387-4.526-15.935-8.506-24.133,8.642-.023,15.513,5.126,19.603,12.225,3.562,1.385,4.901,2.725,5.864,7.681-.608,1.661-2.283,3.922-4.38,5.869,4.426,4.695,2.434,12.596-1.513,15.616l-1.868-2.523c-1.154,13.03-6.552,13.824-9.568,18.043-2.755,3.855-6.029,6.246-10.776,9.086l-3.06-12.822c-1.077-3.057-3.007-5.957-2.345-9.535l.808-4.366c.157-.846,2.295-1.732,2.839-1.986l-5.326.179,1.088-10.575c-1.455-.698-5.008-4.217-4.93-6.554l.454-13.686ZM92.545,118.278l-19.146,1.652,7.303-5.716,1.653,1.592,4.607.263,16.605-8.816-20.634,8.198-.956-1.085c4.359-3.235,6.784-6.004,8.38-11.335,5.912-1.488,16.847,1.673,19.091,7.693l4.079,10.945c-4.206.611-7.364-.594-10.377-3.815l-10.604.424ZM87.439,104.328c-2.206,5.748-6.525,9.389-13.377,11.214,1.802-6.153,6.497-10.326,13.377-11.214ZM60.865,124.631s-4.989,13.197,7.08,3.136c9.422-7.854,36.01-9.476,47.591-.106l.569,10.709c1.744,2.637,3.285,5.265,3.539,8.295l1.48,17.668c.206,2.453,5.441,5.571,2.001,9.211l5.763,7.945,10.302-7.924,3.037-1.685c.611-.339.449-.829.872-2.54,1.928-1.924,4.975-6.895,6.077-9.481.197-.463,2.215-.696,2.51-1.103,3.525-4.877,6.499-23.099,5.943-33.082,3.761-1.278,2.216-5.924,9.262-6.947,3.261-4.797.261-9.448-3.429-13.227-6.888-7.053-7.119-18.755-7.153-28.24l-5.253-2.676c-4.774-2.432-9.144-2.363-14.05.842l-15.017-11.222c-3.109-2.323-9.216-2.873-12.836-1.2-2.471,1.142-4.749-.055-7.511-1.295-4.391-1.973-9.226,2.358-11.634,6.254l-5.093-2.864c3.33-8.344,5.722-16.58,4.08-25.013l-3.816-8.699c-1.226-2.795-3.577-6.783-5.464-9.7-3.595-1.345-9.161-2.651-7.681-8.111l-3.241-.845c-3.597-3.017-7.154-4.386-11.449-5.987C44.091,1.807,32.864-1.814,18.396.965,8.554,2.856-1.956,4.779.312,10.958c.445,1.212,1.63,2.227,3.432,3.793l2.637,4.103,13.854,2.425c-.473,2.059-.89,3.246-.294,3.524l2.788,1.299,7.862,3.663c3.097,5.999,8.171,10.93,14.756,13.676,7.007,6.849,14.27,4.874,13.857,12.407,6.569,3.481,8.572,9.587,10.362,15.521,2.766,9.169,4.641,20.938.645,31.22l-3.33,8.569-6.017,13.473ZM74.195,97.884l4.864,8.199-7.397,5.011c.11-5.817,1.137-9.263,2.533-13.21ZM75.455,70.513c7.205,1.158,6.826,10.376,3.354,19.747l-3.322-14.133c-.238-1.013-.127-3.361-.032-5.614ZM88.174,69.942l3.373,13.505-11.172,12.276c4.181-13.963-.056-24.393,3.57-27.451.842-.71,3.958.588,4.228,1.669ZM32.296,27.442l12.995-1.055c4.387-.356,8.874,1.661,11.513,4.717l8.119,9.403-13.415.755,10.767,2.068,1.261,3.281c.224.584,1.901-.928,3.192-1.98,4.3,4.128,6.49,10.139,7.452,16.006,1.452,1.237,3.074,2.905,3.018,4.246-.05,1.191-2.01,3.787-3.084,3.462-1.074-.325-3.517-1.936-4.103-3.017l-5.172-9.542c-.862-.204-3.681-.779-3.531-1.768l.592-3.895-9.224-3.545c-1.824-.701-3.708-2.864-4.507-4.6-3.42-1.719-9.104-4.418-11.63-6.958-1.172-3.384-2.1-4.877-4.243-7.577ZM14.973,3.29c8.309,1.148,12.794-5.522,25.653,2.231.56-.705,1.781-2.565,2.414-2.138l2.531,1.708c5.155-.233,10.504,2.362,12.776,6.642,1.715-1.612,5.031-2.1,6.424-.516l3.463,3.935,6.391,7.259c6.417,1.339,8.983,8.672,9.651,16.448,1.105.814,3.598,2.29,3.51,3.477l-.321,4.342-3.236,16.422c-4.134-5.312-11.546-4.111-10.052-10.397l4.036-16.978-3.172-8.815c1.183,8.13.99,14.728-2.419,22.505-2.567-4.767-7.209-9.496-9.174-14.834-2.529-6.873-2.476-14.887-3.34-21.187l-3.285.913c3.509,5.666,3.785,12.714,3.822,18.353-7.553-7.03-15.079-11.966-23.672-16.246-3.93-5.333-8.719-10.506-16.51-9.142,3.769,1.321,7.51,2.53,11.16,5.664l-20.134-1.509c6.259,3.498,13.994.332,25.896,7.236l9.291,5.39c-6.358,2.634-6.042,1.008-8.073-.772-2.485,4.08-6.988,2.017-9.952.084l1.571,4.445c-3.562-1.723-5.781-3.469-7.631-6.17l-5.918-3.445c-6.996.829-13.82-3.236-13.545-10.73L14.973,3.29Z"/>
  </g>
</svg>