<?xml version="1.0" encoding="UTF-8"?>
<svg id="Layer_2" data-name="Layer 2" xmlns="http://www.w3.org/2000/svg" viewBox="0 0 140.445 184.854">
  <defs>
    <style>
      .cls-1 {
        fill: #fff;
      }
    </style>
  </defs>
  <g id="Layer_1-2" data-name="Layer 1">
    <g>
      <path class="cls-1" d="M85.977,107.338l-.028.049c.009-.002.019-.004.028-.006v-.044Z"/>
      <path class="cls-1" d="M132.251,124.865l-7.66-8.513c-.65-.722-2.39-2.91-1.947-3.773l1.581-3.076c-3.777-6.437-3.985-14.686,1.393-17.261.928-.444,2.054.074,3.378.555.108-1.743,1.985-1.669,4.588-.379l-3.392-10.098,2.609-13.499c.44-2.277.568-4.988,1.488-7.098,1.69-3.875.527-6.684,1.158-10.719l1.825-11.678-4.285-2.547c-.868-3.432.623-8.017,2.205-11.048-3.631-2.881-2.419-11.678.355-16.758l4.9-8.973-16.649,1.669c-2.604.261-5.805,4.712-9.302,1.384l-10.183,8.349c-.801.657-3.588,1.13-4.617,1.303-4.847,3.495-7.375,10.59-7.572,16.973-1.057.816-4.644,1.468-5.047,1.185l-1.245,7.026c-.078.442-.602,1.983-1.04,1.903l-1.877-.34c1.836,2.297,3.252,4.984-.356,7.891l-2.557-9.434c-.991-3.656-1.42-6.099,3.461-9.152-1.472-.908-2.678-1.403-5.435-2.311-4.319,2.414-7.697,5.266-10.897,8.88-2.567.245-4.847,1.89-6.028,4.411l-2.667,9.356-4.07,2.278c-2.779-4.371-7.191-5.483-12.336-4.708l-6.232-.726c-1.035-.121-2.991-.838-3.638-.205l-2.27,2.226-11.411,1.837.587,2.286c-6.734.617-10.549,3.843-13.04,9.547-1.69-.849-3.364-.961-1.861.815l-4.164,7.162,3.939,3.403c3.643,1.812,7.037,3.984,7.727,7.578l5.272,3.037c1.737.108,4.457.524,5.948,1.575,3.183,2.244,6.291,1.688,9.605,2.279,7.41,1.322,11.466.782,13.063,2.517l-6.057,5.712c-3.61,3.405-5.626,7.598-6.059,11.574-5.247,4.301-9.893,8.939-12.711,14.925l-3.489,3.759c-2.708,2.876-4.044,6.318-3.766,10.679-2.772,4.025-5.333,9.542-4.287,14.49l1.653,7.874,2.448,10.122,4.462,2.515c.037,4.316-1.36,7.812-3.702,11.178.204.574,1.289,2.113,2.086,2.027.797-.086,2.519-.928,3.336-1.51l10.904-7.78c8.347-3.006,14.443-8.279,16.469-16.852l2.422,1.508c-.379-.236,5.156-5.533,7.337-12.847,5.445-3.302,9.29-7.848,10.612-13.544l6.984-7.635c1.812-1.981,3.826-3.687,5.726-4.564-.687.224-.415-2.238.156-2.026l1.938.719,7.909.673c7.476-5.749,18.201-7.786,28.331-3.356,3.123,1.365,5.498,6.424,7.916,9.905,6.829,6.142,6.078-2.676,6.078-2.676ZM57.194,51.323l2.371.142c1.112-6.124,2.363-13.144,7.545-13.558,2.998-4.376,7.399-10.121,13.297-9.512-3.303,4.967-3.644,8.719-.766,12.707-1.358,4.289-1.694,9.523,2.609,12.111,1.493,3.175.478,7.1-1.703,10.502-.517,1.593-.812,2.34,1.873,1.309-.398,1.699-2.314,5.937-4.408,6.392-1.685.227-5.095-2.707-5.568-4.34-2.339-8.068,6.029-8.232,5.659-14.988l-5.355,6.693c-2.305-4.203-1.545-6.15,1.082-9.593l-5.775-.355-3.101-3.718c.507,3.875,2.134,6.054,5.111,9.108l.959,9.168-6.394-5.682c.505,5.337,6.895,5.381,6.936,11.281l-11.081.106-1.162,2.616c-1.926-1.985-2.235-3.902-2.474-6.965l-.866-11.133c-.042-.535.735-2.321,1.21-2.292ZM86.539,71.416l-1.932,3.751c1.165,3.049,1.844,5.335.497,8.695l-4.91-9.009,3.202-7.185,3.143,3.748ZM74.036,77.319c-.921-.5.461-4.118,1.322-3.611,3.878,2.286,6.074,6.605,8.391,12.142-3.146.239-5.359-3.501-6.29-6.674l-3.423-1.858ZM73.806,80.165l-8.536,2.667c.878-3.759,3.44-7.433,6.752-9.061l1.784,6.394ZM76.706,81.515l.135,3.145c.022.506-1.966.258-2.265.236-1.349,1.461-2.163,2.398-3.272,2.773-1.527.516-4.295-2.205-2.898-3.8,2.003-2.287,5.888-2.568,8.301-2.355ZM62.199,76.251l.333,1.961c.088.52,1.138.573,2.395.817l-1.016,5.803-3.247-2.755c-1-.848-2.246-2.666-2.996-3.949l-1.375-2.353c-.378-.647.567-2.158,1.364-3.062l.708,2.732c.198.763,2.352.673,3.834.806ZM71.902,71.671l-5.123,4.079-7.163-1.152c-.221.458-.06-2.05.501-2.115l2.208-.254.85-1.462c-.273.47,6.281-.992,8.728.904ZM35.556,87.644l1.725-2.831c.225-.369-1.412-1.043-1.782-.838l-1.366.755-5.532,1.296c-1.333.312-3.573-2.676-4.715-3.294l-6.205-1.566-3.182-.608c-.883-.169-1.365-2.097-1.586-2.952l-4.328-4.37-6.442-5.446,8.056-7.649c.368-.349.718-2.51,1.17-2.565l1.921-.235c1.637-5.609,7.609-3.335,7.89-4.084l.988-2.633c2.353-1.128,7.162-1.071,10.779-.59.202-.307.345-2.621,1.128-2.767.935-.175,3.66.076,4.57.461l5.83,2.471c.94.405,1.325.183.36-2.115,3.689-.901,9.242,2.372,9.711,7.047l.818,8.162.665,7.289c-11.926-3.242-10.939-13.625-18.573-19.06l9.187,15.587-10.322-1.684c-5.531-.903-3.791-7.813-15.63-7.947l-2.423-.027c-.471-.005-.804,1.791-.335,1.822l2.3.155,7.757.955-2.543,5.891c2.94-.033,5.587-.107,9.26,1.974l-11.828,9.23c-1.73-.178-3.056-.172-4.294.678,5.372.257,9.532-2.217,13.578-6.478l9.593-4.544,9.677,2.708c-5.888,4.563-10.297,7.006-13.438,12.145l8.242-6.554c3.019-2.401,5.14-4.807,9.749-3.762l-2.884,3.058c1.752,1.662,3.299,3.618,3.756,5.452l2.347,3.55-7.984,2.022c-.32.081-1.147-.16-1.388.027l-2.328,1.808-1.216-4.158-2.269,1.525c-.347.233-.983-.104-1.194-.174-2.452,1.71-4.677,2.647-7.267,2.868ZM36.98,105.751l-1.96-2.927c1.894-2.035,4.014-3.895,6.684-5.613,3.925-2.525,1.541-7.481,12.493-7.752-.161-1.086.059-3.555,1.002-3.692,1.033-.15,3.244-.018,3.525.219l-.117,5.098c-5.724,2.553-10.333,5.25-14.227,9.565l6.201-3.785c.467-.285,1.903-1.147,2.175-.753l1.18,1.711c1.232-2.295,2.938-4.916,5.212-5.701,2.252-.777,5.109-.665,7.1-.081l.313-1.492c.098-.465,1.439-.485,2.202-.535l7.807-.51-9.749,9.389c-3.202,3.084-6.421,3.911-10.792,3.51-1.67,1.688-5.715,5.226-8.353,4.878-5.985-.787-8.772.773-13.889,5.228.596-2.635,1.339-4.059,3.193-6.757ZM24.108,121.778c.871-4.857,3.706-9.814,8.525-11.426l.083,6.806,5.679-5.921c1.339-1.396,5.126-2.693,6.824-2.891l.178,2.785c.077,1.206,5.084-2.036,10.332,1.659l6.293,1.02-5.453,3.639-12.158,8.114c-3.106,6.213-10.612,8.158-16.445,5.932l-5.304,2.957c-2.642,1.473-5.328.847-8.423-1.391l9.868-11.284ZM57.351,145.006l-.096-2.517c-.018-.459-.669-.757-1.156-.968-1.874-.81-.385,10.06-7.496,16.46l-2.553-3.805c-1.95,2.004-2.203,2.658-.539,2.731-.7,6.973-6.147,12.813-12.57,15.666l-.349-3.966c-4.618,5.348-7.752,9.555-14.702,14.072l1.697-8.075-1.74-7.446c-1.131-.154-3.293-.282-3.494-.989l-.864-3.049-1.208-7.064c-.311-1.82.279-4.337.721-6.424l-2.585.947c-.505.185-.682-2.532-.441-3.022l5.898-11.971.827,3.864c4.309-4.042,9.983-5.458,15.591-5.317l4.262-.143c-3.908,5.867-7.027,10.42-10.557,13.855l-8.044,4.318c-.314.31-.66.564-.541.858l1.025,2.546c1.148-2.583,3.654-4.846,6.999-5.584-1.805,5.194-2.975,9.069-3.218,14.176l1.801-2.169,1.905-1.785c-3.512-2.249.567-9.754,4.618-14.944l-.419,4.669c-.074.821.954,2.107,1.5,3.025l1.774,6.283c1.356-8.32-4.747-12.324,1.568-20.258,3.255-4.089,6.553-7.868,11.025-11.658-1.077,6.368-1.247,11.752-.469,18.174l.787,6.492c2.769-6.897-2.534-14.387,1.236-20.88-.404-2.861.576-5.862,3.094-8.438l12.281-6.855,3.208-1.016c.807-.256,2.755,1.989,2.703,2.834l-.498,8.04-.13,2.137c-3.908,3.458-2.86,11.378-10.854,17.198ZM107.247,113.22c-9.883.663-17.259,6.939-23.544,5.49-.825-1.478-4.061-.771-5.5-.255l-5.367,7.061c-.731.962-2.834,2.138-3.606,2.113l-.249-1.518,2.223-10.293c.871-4.032,5.59-5.431,8.568-5.683l9.262-.782c.383.931.901,2.135,1.101,1.751l1.131-2.173c.206-.395-1.191-.52-1.747-.62l-3.715-.67.145-.253c-7.488,1.506-14.566,3.006-22.433,5.787l-11.573-4.064c1.918-3.003,4.37-3.196,7.504-3.974,2.723-.677,5.519-2.714,7.674-3.705,7.724-3.553,18.506,1.505,18.601,2.359l.259,2.332-.003,1.216.609-1.06,2.673-1.866c2.476-1.728,8.095,6.506,19.155,6.232,1.836-.045,4.685.851,5.551,2.043-1.548,2.842-5.038.482-6.718.532ZM92.893,103.21l3.967-2.59c.983-.642,4.035.834,4.999,1.7l7.284,6.541c-4.885.928-11.253-1.993-16.25-5.651ZM118.809,101.907c1.646,2.22,3.181,6.707,2.629,9.837-4.374-7.917-13.214-13.062-12.016-13.437l1.954-.613,9.077-2.845-1.644,7.058ZM123.658,78.563c1.301,1.653,2.341,3.754,2.846,5.062,2.217,1.496,4.469,4.261,5.424,6.115-5.025.801-9.783,1.39-13.637,2.902l-5.972,2.344-8.328,2.542c-2.874.878-5.49,2.691-9.291,1.381-3.55,3.429-8.27,3.139-12.479.692l-5.363-1.008c-1.285-.241-2.301-3.839-1.952-5.126.66-2.439,4.967-3.983,7.317-3.428l4.764-5.336c1.34,4.649,3.299,8.129,7.12,10.528-2.875-3.265-5.063-7.091-5.524-11.596,6.346-3.115,10.955,1.734,14.903,7.817l4.617,2.927c1.855-3.24-2.057-2.369-2.714-3.143l-7.745-9.122c8.137-1.328,14.88,1.14,22.589,3.439-3.304-4.923-8.537-2.25-12.65-6.219l7.068-2.281c.291-.094,1.971.831,1.935.784-.028-.036.143-1.195.284-2.204l-7.58.65c-3.002,4.334-8.302,5.813-12.829,3.657l-4.054,1.788c3.347-7.803,9.755-11.025,16.593-12.474-2.636-.168-8.622-.014-10.478,2.146l-9.862,11.483c-1.349-2.107-1.416-4.744-1.476-7.652-.158-7.597,5.775-15.352,13.236-14.161.545.087.228,1.497.171,2.481,9.164-3.002,8.733,3.819,13.745,4.211l-1.686,2.495,3.78-1.615c.811-.347,1.574,2.732,2.122,3.43l5.106,6.489ZM129.885,23.768c-.038.549-.112,2.382.397,2.516l2.437.644c-1.926,4.524-1.735,8.925-.847,14.388l2.984-1.401c1.883,8.498-3.339,11.442-3.186,14.277.022.405.314,1.496.645,1.265l2.238-1.568c-.454,5.286-2.457,9.054-4.754,13.47l-2.183,4.198c.821-.083,3.415-.582,3.353.062l-.312,3.288c-.157,1.651-2.992,5.889-3.98,4.606-2.325-6.149-6.588-6.613-6.496-8.215.204-3.535,8.484-6.187,9.359-13.433l-8.467,9.897c-.344.402-2.341,1.339-2.652.988l-1.285-1.451c-5.03-1.068-6.084-4.547-5.654-9.238.287-3.13.054-7.97,2.704-10.072,5.457-4.328,10.209-8.274,14.417-13.556-.769-.475-2.305-1.325-2.566-.838l-1.72,3.213c-1.08,2.017-4.846,4.55-7.196,5.914l-4.883,4.672,1.436-8.272c.521-3.001.679-9.81,3.14-11.755l13.492-10.667-.421,7.068ZM133.589,10.188c-1.104,3.051-3.829,4.437-6.007,4.953-1.205,2.775-3.638,6.293-7.401,7.154-.997-7.667,6.469-10.863,8.646-16.57-8.235,4.998-11.355,13.66-14.107,22.127l-3.331,10.25-4.745-11.345c-1.038-2.481-1.672-4.646-1.163-7.26.162.136-.615-.517-.866-.725-.361-.299-.874,1.364-.81,1.891l.842,6.839c2.177,4.652,6.175,10.198,5.948,14.719l-1.007,20.096-12.075-9.453c-1.616-1.265-4.447-11.617-4.888-10.055l.979-3.467c-5.985.21-.276,12.168,8.912,19.848-6.322.551-11.738,1.628-14.949,7.588-1.99-3.465-2.994-7.31-2.869-10.955,6.5-2.014-3.591-11.372,5.278-22.914.641.503,1.884,1.727,2.139,1.377l1.364-1.872c.2-3.527.652-7.068,2.239-10.365l2.444-5.078c.553-1.149,3.498-.655,5.121-.14l4.659-7.133c1.964-3.007,6.314-2.592,8.744-2.118,4.233-2.884,9.802-5.383,15.033-4.768l4.917-1.05-3.048,8.425Z"/>
    </g>
  </g>
</svg>